<svg viewBox="0 0 140 190" width="140" height="190" xmlns="http://www.w3.org/2000/svg">
  <defs>
    <linearGradient id="scaleFill" x1="0" y1="0" x2="0" y2="1">
      <stop offset="0" stop-color="#7ede9a" />
      <stop offset="0.55" stop-color="#4db071" />
      <stop offset="1" stop-color="#3a9257" />
    </linearGradient>
    <linearGradient id="dragonHeadFill" x1="0.2" y1="0" x2="0.8" y2="1">
      <stop offset="0" stop-color="#8ae6a4" />
      <stop offset="0.6" stop-color="#54b877" />
      <stop offset="1" stop-color="#3e9a5e" />
    </linearGradient>
    <linearGradient id="bellyFill" x1="0" y1="0" x2="0" y2="1">
      <stop offset="0" stop-color="#f9edc4" />
      <stop offset="1" stop-color="#e2c88f" />
    </linearGradient>
    <linearGradient id="wingFill" x1="0" y1="0" x2="0" y2="1">
      <stop offset="0" stop-color="#ffab63" />
      <stop offset="1" stop-color="#e2672f" />
    </linearGradient>
    <linearGradient id="hornFill" x1="0" y1="0" x2="0" y2="1">
      <stop offset="0" stop-color="#f7ecce" />
      <stop offset="1" stop-color="#d9c496" />
    </linearGradient>
  </defs>

  <!-- Ground shadow -->
  <ellipse cx="68" cy="183" rx="34" ry="6" fill="#000000" opacity="0.16" />

  <!-- Tail: curls out to the right, tipped with a cream spade -->
  <g id="tail">
    <path d="M90 150 Q118 164 126 146" stroke="url(#scaleFill)" stroke-width="14" stroke-linecap="round" fill="none" />
    <path d="M124 150 Q129 140 127 128" stroke="#4aa869" stroke-width="8" stroke-linecap="round" fill="none" />
    <path d="M127 109 L137 124 L127 120 L117 124 Z" fill="url(#hornFill)" />
  </g>

  <!-- Wings: bat-style, fire-orange membrane on dark-green bones -->
  <g id="wing-left">
    <path d="M47 92 Q26 70 9 62 L3 100 Q11 95 15 105 Q23 99 26 111 Q34 105 37 117 Q42 112 48 118 Z" fill="url(#wingFill)" />
    <path d="M9 63 L5 98" stroke="#c2531f" stroke-width="1.6" fill="none" opacity="0.5" />
    <path d="M11 64 L16 102" stroke="#c2531f" stroke-width="1.6" fill="none" opacity="0.5" />
    <path d="M14 66 L26 108" stroke="#c2531f" stroke-width="1.6" fill="none" opacity="0.5" />
    <path d="M47 92 Q26 70 9 62" stroke="#2f7a49" stroke-width="6" stroke-linecap="round" fill="none" />
    <path d="M9 62 L2 55 L12 57 Z" fill="url(#hornFill)" />
  </g>
  <g id="wing-right">
    <path d="M92 90 Q113 68 130 60 L136 98 Q128 93 124 103 Q116 97 113 109 Q105 103 102 115 Q97 110 91 116 Z" fill="url(#wingFill)" />
    <path d="M130 61 L134 96" stroke="#c2531f" stroke-width="1.6" fill="none" opacity="0.5" />
    <path d="M128 62 L123 100" stroke="#c2531f" stroke-width="1.6" fill="none" opacity="0.5" />
    <path d="M125 64 L113 106" stroke="#c2531f" stroke-width="1.6" fill="none" opacity="0.5" />
    <path d="M92 90 Q113 68 130 60" stroke="#2f7a49" stroke-width="6" stroke-linecap="round" fill="none" />
    <path d="M130 60 L137 53 L127 55 Z" fill="url(#hornFill)" />
  </g>

  <!-- Legs: stout haunches + three-clawed feet -->
  <g id="leg-left">
    <rect x="53" y="146" width="13" height="30" rx="6.5" fill="#4aa869" />
    <ellipse cx="57" cy="175" rx="12" ry="6.5" fill="#3a9257" />
    <path d="M49 172 L43 178 L51 180 Z" fill="url(#hornFill)" />
    <path d="M54 175 L50 182 L58 181 Z" fill="url(#hornFill)" />
    <path d="M60 176 L58 183 L65 181 Z" fill="url(#hornFill)" />
  </g>
  <g id="leg-right">
    <rect x="70" y="146" width="13" height="30" rx="6.5" fill="#3f9c60" />
    <ellipse cx="78" cy="175" rx="12" ry="6.5" fill="#338553" />
    <path d="M70 172 L64 178 L72 180 Z" fill="url(#hornFill)" />
    <path d="M75 175 L71 182 L79 181 Z" fill="url(#hornFill)" />
    <path d="M81 176 L79 183 L86 181 Z" fill="url(#hornFill)" />
  </g>

  <!-- Resting arm: hangs at the side, two little claws on the paw -->
  <g id="arm-rest">
    <path d="M44 100 Q35 109 34 121" stroke="#4aa869" stroke-width="12" stroke-linecap="round" fill="none" />
    <circle cx="34" cy="124" r="6.5" fill="#3a9257" />
    <path d="M30 127 L25 134 L32 133 Z" fill="url(#hornFill)" />
    <path d="M35 129 L34 137 L41 132 Z" fill="url(#hornFill)" />
  </g>

  <!-- Body: scaled torso, cream belly plates, spikes along both sides -->
  <g id="body">
    <rect x="38" y="84" width="62" height="74" rx="26" fill="url(#scaleFill)" />
    <path d="M40 98 L31 103 L40 109 Z" fill="#2f7a49" />
    <path d="M40 116 L32 121 L40 126 Z" fill="#2f7a49" />
    <path d="M98 98 L107 103 L98 109 Z" fill="#2f7a49" />
    <path d="M98 116 L106 121 L98 126 Z" fill="#2f7a49" />
    <path d="M69 90 Q88 90 90 116 Q91 146 69 152 Q47 146 48 116 Q50 90 69 90 Z" fill="url(#bellyFill)" />
    <path d="M51 106 Q69 112 87 106" stroke="#d9bc85" stroke-width="2.5" fill="none" />
    <path d="M50 120 Q69 126 88 120" stroke="#d9bc85" stroke-width="2.5" fill="none" />
    <path d="M51 134 Q69 140 87 134" stroke="#d9bc85" stroke-width="2.5" fill="none" />
    <path d="M55 145 Q69 150 83 145" stroke="#d9bc85" stroke-width="2.5" fill="none" />
    <path d="M42 96 Q40 118 44 134" stroke="#ffffff" stroke-width="4" stroke-linecap="round" fill="none" opacity="0.3" />
  </g>

  <!-- Greeting arm: drawn RAISED (same shoulder geometry as the knight so the
       shared tuck/wave choreography fits); three cream claws on the paw -->
  <g id="arm-wave">
    <path d="M93 99 Q114 70 120 50" stroke="#4aa869" stroke-width="14" stroke-linecap="round" fill="none" />
    <circle cx="121" cy="47" r="9.5" fill="#3a9257" />
    <path d="M114 41 L109 32 L118 36 Z" fill="url(#hornFill)" />
    <path d="M120 38 L119 28 L126 35 Z" fill="url(#hornFill)" />
    <path d="M127 42 L133 34 L130 44 Z" fill="url(#hornFill)" />
  </g>

  <!-- Head: horned skull with a muzzle to the left, amber slit-pupil eyes,
       cheek frills, and the fire/smoke anchored at the mouth -->
  <g id="head">
    <g id="smoke">
      <circle cx="30" cy="48" r="3" fill="#b9c3cd" opacity="0.55" />
      <circle cx="26" cy="40" r="2.2" fill="#c9d2da" opacity="0.4" />
    </g>
    <path d="M57 26 C51 14 55 5 66 1 C60 10 62 17 65 24 Z" fill="url(#hornFill)" />
    <path d="M90 27 C97 16 95 6 105 3 C98 12 98 19 94 26 Z" fill="url(#hornFill)" />
    <path d="M70 18 L74 8 L79 18 Z" fill="#2f7a49" />
    <path d="M82 21 L88 13 L90 23 Z" fill="#2f7a49" />
    <circle cx="73" cy="50" r="30" fill="url(#dragonHeadFill)" />
    <path d="M50 34 Q61 22 76 21" stroke="#ffffff" stroke-width="4" stroke-linecap="round" fill="none" opacity="0.35" />
    <path d="M100 42 L112 39 L101 49 Z" fill="#2f7a49" />
    <path d="M101 52 L114 52 L102 60 Z" fill="#3a9257" />
    <ellipse cx="46" cy="60" rx="20" ry="14" fill="url(#bellyFill)" />
    <ellipse cx="33" cy="55" rx="2.6" ry="3.4" fill="#7a5c37" />
    <ellipse cx="40" cy="51" rx="2" ry="2.6" fill="#7a5c37" opacity="0.85" />
    <path d="M27 65 Q44 74 61 69" stroke="#2c6b43" stroke-width="3" stroke-linecap="round" fill="none" />
    <path d="M36 69.5 L39 76 L42 70 Z" fill="#ffffff" />
    <path d="M52 34 Q59 30 66 33" stroke="#2f7a49" stroke-width="3" stroke-linecap="round" fill="none" />
    <path d="M80 33 Q87 30 94 34" stroke="#2f7a49" stroke-width="3" stroke-linecap="round" fill="none" />
    <g id="eyes">
      <ellipse cx="60" cy="42" rx="6.2" ry="7.8" fill="#ffdf6b" />
      <ellipse cx="86" cy="42" rx="6.2" ry="7.8" fill="#ffdf6b" />
      <ellipse cx="59.4" cy="42.6" rx="2.3" ry="5.6" fill="#26200f" />
      <ellipse cx="85.4" cy="42.6" rx="2.3" ry="5.6" fill="#26200f" />
      <circle cx="58" cy="39" r="1.5" fill="#ffffff" />
      <circle cx="84" cy="39" r="1.5" fill="#ffffff" />
    </g>
    <g id="fire">
      <g transform="translate(29 61) rotate(38)">
        <path d="M0 0 C -13 -11 -28 -16 -40 -13 C -35 -9 -36 -6 -45 -8 C -54 -9 -59 -4 -63 1 C -57 4 -53 8 -44 8 C -48 12 -44 15 -35 13 C -22 17 -10 10 0 0 Z" fill="#ff6b2e" />
        <path d="M0 0 C -10 -8 -22 -11 -31 -9 C -27 -6 -28 -4 -36 -5 C -42 -5 -46 -2 -49 1 C -44 4 -40 5 -33 5 C -36 8 -33 10 -27 9 C -17 10 -8 6 0 0 Z" fill="#ffa63d" />
        <g id="fire-inner">
          <path d="M0 0 C -8 -5 -16 -7 -22 -5 C -26 -4 -31 -1 -34 1 C -29 3 -25 4 -20 4 C -13 5 -5 4 0 0 Z" fill="#ffe66b" />
          <path d="M0 0 C -5 -3 -10 -4 -15 -3 C -18 -1 -19 0 -21 1 C -16 3 -10 3 -5 1 Z" fill="#fff6d8" />
        </g>
        <circle cx="-57" cy="-10" r="2.4" fill="#ffa63d" />
        <circle cx="-66" cy="3" r="2" fill="#ff6b2e" />
        <circle cx="-50" cy="10" r="1.7" fill="#ffa63d" />
      </g>
    </g>
  </g>
</svg>
